<?xml version="1.0" encoding="UTF-8" standalone="no"?>
<!DOCTYPE svg PUBLIC "-//W3C//DTD SVG 1.1//EN"
 "http://www.w3.org/Graphics/SVG/1.1/DTD/svg11.dtd">
<!-- Generated by graphviz version 12.1.1 (20240910.0053)
 -->
<!-- Title: INFRA Pages: 1 -->
<svg width="485pt" height="296pt"
 viewBox="0.00 0.00 484.50 296.00" xmlns="http://www.w3.org/2000/svg" xmlns:xlink="http://www.w3.org/1999/xlink">
<g id="graph0" class="graph" transform="scale(1 1) rotate(0) translate(4 292)">
<title>INFRA</title>
<polygon fill="white" stroke="none" points="-4,4 -4,-292 480.5,-292 480.5,4 -4,4"/>
<!-- Packer Docker Image -->
<g id="node1" class="node">
<title>Packer Docker Image</title>
<path fill="#b7e0ff" stroke="black" stroke-width="2" d="M285.31,-72C285.31,-72 158.7,-72 158.7,-72 152.7,-72 146.7,-66 146.7,-60 146.7,-60 146.7,-12 146.7,-12 146.7,-6 152.7,0 158.7,0 158.7,0 285.31,0 285.31,0 291.31,0 297.31,-6 297.31,-12 297.31,-12 297.31,-60 297.31,-60 297.31,-66 291.31,-72 285.31,-72"/>
<text text-anchor="middle" x="222.01" y="-40.2" font-family="Arial" font-size="14.00">Packer Docker Image</text>
<text text-anchor="middle" x="222.01" y="-23.4" font-family="Arial" font-size="14.00">(Docker::Image)</text>
</g>
<!-- Google Cloud Build -->
<g id="node2" class="node">
<title>Google Cloud Build</title>
<path fill="#b7e0ff" stroke="black" stroke-width="2" d="M181.44,-180C181.44,-180 20.57,-180 20.57,-180 14.57,-180 8.57,-174 8.57,-168 8.57,-168 8.57,-120 8.57,-120 8.57,-114 14.57,-108 20.57,-108 20.57,-108 181.44,-108 181.44,-108 187.44,-108 193.44,-114 193.44,-120 193.44,-120 193.44,-168 193.44,-168 193.44,-174 187.44,-180 181.44,-180"/>
<text text-anchor="middle" x="101.01" y="-148.2" font-family="Arial" font-size="14.00">Google Cloud Build</text>
<text text-anchor="middle" x="101.01" y="-131.4" font-family="Arial" font-size="14.00">(Google::CloudBuild::Build)</text>
</g>
<!-- Google Cloud Build&#45;&gt;Packer Docker Image -->
<g id="edge1" class="edge">
<title>Google Cloud Build&#45;&gt;Packer Docker Image</title>
<path fill="none" stroke="black" d="M141.3,-107.7C151.6,-98.67 162.8,-88.87 173.47,-79.52"/>
<polygon fill="black" stroke="black" points="175.54,-82.36 180.75,-73.14 170.92,-77.1 175.54,-82.36"/>
</g>
<!-- Google Cloud Logging -->
<g id="node3" class="node">
<title>Google Cloud Logging</title>
<path fill="#fff5cd" stroke="black" stroke-width="2" d="M202.01,-281.45C202.01,-285.07 156.74,-288 101.01,-288 45.27,-288 0,-285.07 0,-281.45 0,-281.45 0,-222.55 0,-222.55 0,-218.93 45.27,-216 101.01,-216 156.74,-216 202.01,-218.93 202.01,-222.55 202.01,-222.55 202.01,-281.45 202.01,-281.45"/>
<path fill="none" stroke="black" stroke-width="2" d="M202.01,-281.45C202.01,-277.84 156.74,-274.91 101.01,-274.91 45.27,-274.91 0,-277.84 0,-281.45"/>
<text text-anchor="middle" x="101.01" y="-256.2" font-family="Arial" font-size="14.00">Google Cloud Logging</text>
<text text-anchor="middle" x="101.01" y="-239.4" font-family="Arial" font-size="14.00">(Google::Logging::LogBucket)</text>
</g>
<!-- Google Cloud Logging&#45;&gt;Google Cloud Build -->
<g id="edge2" class="edge">
<title>Google Cloud Logging&#45;&gt;Google Cloud Build</title>
<path fill="none" stroke="black" d="M101.01,-215.7C101.01,-207.93 101.01,-199.57 101.01,-191.43"/>
<polygon fill="black" stroke="black" points="104.51,-191.66 101.01,-181.66 97.51,-191.66 104.51,-191.66"/>
</g>
<!-- Google Container Registry -->
<g id="node4" class="node">
<title>Google Container Registry</title>
<path fill="#fff5cd" stroke="black" stroke-width="2" d="M476.5,-173.45C476.5,-177.07 417.12,-180 344.01,-180 270.9,-180 211.51,-177.07 211.51,-173.45 211.51,-173.45 211.51,-114.55 211.51,-114.55 211.51,-110.93 270.9,-108 344.01,-108 417.12,-108 476.5,-110.93 476.5,-114.55 476.5,-114.55 476.5,-173.45 476.5,-173.45"/>
<path fill="none" stroke="black" stroke-width="2" d="M476.5,-173.45C476.5,-169.84 417.12,-166.91 344.01,-166.91 270.9,-166.91 211.51,-169.84 211.51,-173.45"/>
<text text-anchor="middle" x="344.01" y="-148.2" font-family="Arial" font-size="14.00">Google Container Registry</text>
<text text-anchor="middle" x="344.01" y="-131.4" font-family="Arial" font-size="14.00">(Google::ContainerRegistry::Repository)</text>
</g>
<!-- Google Container Registry&#45;&gt;Packer Docker Image -->
<g id="edge3" class="edge">
<title>Google Container Registry&#45;&gt;Packer Docker Image</title>
<path fill="none" stroke="black" d="M303.38,-107.7C292.99,-98.67 281.71,-88.87 270.95,-79.52"/>
<polygon fill="black" stroke="black" points="273.44,-77.05 263.6,-73.14 268.85,-82.34 273.44,-77.05"/>
</g>
</g>
</svg>
